<mxfile host="app.diagrams.net" modified="2023-11-18T18:37:56.070Z" agent="Mozilla/5.0 (X11; Linux x86_64) AppleWebKit/537.36 (KHTML, like Gecko) Chrome/119.0.0.0 Safari/537.36" etag="mN7z9F2AgJ-3zUGCE74v" version="22.1.3" type="github">
  <diagram name="Page-1" id="itPdW27-nOYAai2Lb2vy">
    <mxGraphModel dx="1378" dy="779" grid="1" gridSize="10" guides="1" tooltips="1" connect="1" arrows="1" fold="1" page="1" pageScale="1" pageWidth="850" pageHeight="1100" math="0" shadow="0">
      <root>
        <mxCell id="0" />
        <mxCell id="1" parent="0" />
        <mxCell id="nDkgFtB3wj2_NNXLFKPz-24" style="edgeStyle=orthogonalEdgeStyle;rounded=0;orthogonalLoop=1;jettySize=auto;html=1;exitX=0.5;exitY=1;exitDx=0;exitDy=0;entryX=0.5;entryY=0;entryDx=0;entryDy=0;" edge="1" parent="1" source="nDkgFtB3wj2_NNXLFKPz-1" target="nDkgFtB3wj2_NNXLFKPz-20">
          <mxGeometry relative="1" as="geometry" />
        </mxCell>
        <mxCell id="nDkgFtB3wj2_NNXLFKPz-43" style="edgeStyle=orthogonalEdgeStyle;rounded=0;orthogonalLoop=1;jettySize=auto;html=1;exitX=0.5;exitY=1;exitDx=0;exitDy=0;entryX=0.5;entryY=0;entryDx=0;entryDy=0;" edge="1" parent="1" source="nDkgFtB3wj2_NNXLFKPz-1" target="nDkgFtB3wj2_NNXLFKPz-37">
          <mxGeometry relative="1" as="geometry" />
        </mxCell>
        <mxCell id="nDkgFtB3wj2_NNXLFKPz-1" value="" style="rounded=0;whiteSpace=wrap;html=1;" vertex="1" parent="1">
          <mxGeometry x="320" y="10" width="180" height="210" as="geometry" />
        </mxCell>
        <mxCell id="nDkgFtB3wj2_NNXLFKPz-4" value="" style="rounded=0;whiteSpace=wrap;html=1;" vertex="1" parent="1">
          <mxGeometry x="32.5" y="300" width="195" height="110" as="geometry" />
        </mxCell>
        <mxCell id="nDkgFtB3wj2_NNXLFKPz-11" style="edgeStyle=orthogonalEdgeStyle;rounded=0;orthogonalLoop=1;jettySize=auto;html=1;entryX=0.5;entryY=0;entryDx=0;entryDy=0;exitX=0.5;exitY=1;exitDx=0;exitDy=0;" edge="1" parent="1" source="nDkgFtB3wj2_NNXLFKPz-1" target="nDkgFtB3wj2_NNXLFKPz-10">
          <mxGeometry relative="1" as="geometry">
            <mxPoint x="198" y="230" as="sourcePoint" />
          </mxGeometry>
        </mxCell>
        <mxCell id="nDkgFtB3wj2_NNXLFKPz-8" value="&lt;h1&gt;&lt;font style=&quot;font-size: 12px;&quot;&gt;Personal&lt;/font&gt;&lt;/h1&gt;&lt;p&gt;&lt;font style=&quot;font-size: 12px;&quot;&gt;To organize my personal life:&lt;/font&gt;&lt;/p&gt;&lt;p&gt;&lt;/p&gt;&lt;ul&gt;&lt;li&gt;&lt;font style=&quot;font-size: 12px;&quot;&gt;Financial&lt;/font&gt;&lt;/li&gt;&lt;li&gt;Life goals&lt;/li&gt;&lt;li&gt;Skills&lt;/li&gt;&lt;/ul&gt;&lt;p&gt;&lt;/p&gt;" style="text;html=1;strokeColor=none;fillColor=none;spacing=5;spacingTop=-20;whiteSpace=wrap;overflow=hidden;rounded=0;" vertex="1" parent="1">
          <mxGeometry x="320" y="10" width="180" height="170" as="geometry" />
        </mxCell>
        <mxCell id="nDkgFtB3wj2_NNXLFKPz-30" style="edgeStyle=orthogonalEdgeStyle;rounded=0;orthogonalLoop=1;jettySize=auto;html=1;exitX=0.5;exitY=1;exitDx=0;exitDy=0;" edge="1" parent="1" source="nDkgFtB3wj2_NNXLFKPz-10" target="nDkgFtB3wj2_NNXLFKPz-17">
          <mxGeometry relative="1" as="geometry" />
        </mxCell>
        <mxCell id="nDkgFtB3wj2_NNXLFKPz-34" style="edgeStyle=orthogonalEdgeStyle;rounded=0;orthogonalLoop=1;jettySize=auto;html=1;exitX=0.5;exitY=1;exitDx=0;exitDy=0;entryX=0.5;entryY=0;entryDx=0;entryDy=0;" edge="1" parent="1" source="nDkgFtB3wj2_NNXLFKPz-10" target="nDkgFtB3wj2_NNXLFKPz-33">
          <mxGeometry relative="1" as="geometry" />
        </mxCell>
        <mxCell id="nDkgFtB3wj2_NNXLFKPz-10" value="&lt;h1&gt;&lt;span style=&quot;font-size: 12px;&quot;&gt;Finance&lt;/span&gt;&lt;/h1&gt;&lt;div&gt;&lt;span style=&quot;font-size: 12px;&quot;&gt;Track my expenses&lt;/span&gt;&lt;/div&gt;&lt;div&gt;&lt;span style=&quot;font-size: 12px;&quot;&gt;Sometimes add note to notify something&lt;/span&gt;&lt;/div&gt;&lt;p&gt;&lt;/p&gt;" style="text;html=1;strokeColor=none;fillColor=none;spacing=5;spacingTop=-20;whiteSpace=wrap;overflow=hidden;rounded=0;" vertex="1" parent="1">
          <mxGeometry x="32.5" y="300" width="195" height="110" as="geometry" />
        </mxCell>
        <mxCell id="nDkgFtB3wj2_NNXLFKPz-16" value="" style="rounded=0;whiteSpace=wrap;html=1;" vertex="1" parent="1">
          <mxGeometry x="70" y="510" width="170" height="60" as="geometry" />
        </mxCell>
        <mxCell id="nDkgFtB3wj2_NNXLFKPz-17" value="&lt;h1 style=&quot;text-align: center;&quot;&gt;&lt;span style=&quot;background-color: initial; font-size: 12px;&quot;&gt;Note&lt;/span&gt;&lt;/h1&gt;&lt;p&gt;&lt;/p&gt;" style="text;html=1;strokeColor=none;fillColor=none;spacing=5;spacingTop=-20;whiteSpace=wrap;overflow=hidden;rounded=0;" vertex="1" parent="1">
          <mxGeometry x="70" y="510" width="170" height="60" as="geometry" />
        </mxCell>
        <mxCell id="nDkgFtB3wj2_NNXLFKPz-19" value="" style="rounded=0;whiteSpace=wrap;html=1;" vertex="1" parent="1">
          <mxGeometry x="270" y="300" width="220" height="110" as="geometry" />
        </mxCell>
        <mxCell id="nDkgFtB3wj2_NNXLFKPz-31" style="edgeStyle=orthogonalEdgeStyle;rounded=0;orthogonalLoop=1;jettySize=auto;html=1;exitX=0.5;exitY=1;exitDx=0;exitDy=0;entryX=0.5;entryY=0;entryDx=0;entryDy=0;" edge="1" parent="1" source="nDkgFtB3wj2_NNXLFKPz-20" target="nDkgFtB3wj2_NNXLFKPz-17">
          <mxGeometry relative="1" as="geometry" />
        </mxCell>
        <mxCell id="nDkgFtB3wj2_NNXLFKPz-36" style="edgeStyle=orthogonalEdgeStyle;rounded=0;orthogonalLoop=1;jettySize=auto;html=1;exitX=0.5;exitY=1;exitDx=0;exitDy=0;entryX=0.5;entryY=0;entryDx=0;entryDy=0;" edge="1" parent="1" source="nDkgFtB3wj2_NNXLFKPz-20" target="nDkgFtB3wj2_NNXLFKPz-33">
          <mxGeometry relative="1" as="geometry" />
        </mxCell>
        <mxCell id="nDkgFtB3wj2_NNXLFKPz-20" value="&lt;h1&gt;&lt;span style=&quot;background-color: initial; font-size: 12px;&quot;&gt;I want to ...&lt;/span&gt;&lt;/h1&gt;&lt;h1&gt;&lt;span style=&quot;background-color: initial; font-size: 12px; font-weight: normal;&quot;&gt;When I set goals to my personal life (get up earlier, go to the gym, ...)&lt;/span&gt;&lt;br&gt;&lt;/h1&gt;&lt;p&gt;&lt;/p&gt;" style="text;html=1;strokeColor=none;fillColor=none;spacing=5;spacingTop=-20;whiteSpace=wrap;overflow=hidden;rounded=0;" vertex="1" parent="1">
          <mxGeometry x="270" y="300" width="220" height="110" as="geometry" />
        </mxCell>
        <mxCell id="nDkgFtB3wj2_NNXLFKPz-32" value="" style="rounded=0;whiteSpace=wrap;html=1;" vertex="1" parent="1">
          <mxGeometry x="370" y="500" width="170" height="60" as="geometry" />
        </mxCell>
        <mxCell id="nDkgFtB3wj2_NNXLFKPz-33" value="&lt;h1 style=&quot;text-align: center;&quot;&gt;&lt;span style=&quot;background-color: initial; font-size: 12px;&quot;&gt;Tasks&lt;/span&gt;&lt;/h1&gt;&lt;p&gt;&lt;/p&gt;" style="text;html=1;strokeColor=none;fillColor=none;spacing=5;spacingTop=-20;whiteSpace=wrap;overflow=hidden;rounded=0;" vertex="1" parent="1">
          <mxGeometry x="370" y="500" width="170" height="60" as="geometry" />
        </mxCell>
        <mxCell id="nDkgFtB3wj2_NNXLFKPz-41" style="edgeStyle=orthogonalEdgeStyle;rounded=0;orthogonalLoop=1;jettySize=auto;html=1;exitX=0.5;exitY=1;exitDx=0;exitDy=0;entryX=0.5;entryY=0;entryDx=0;entryDy=0;" edge="1" parent="1" source="nDkgFtB3wj2_NNXLFKPz-37" target="nDkgFtB3wj2_NNXLFKPz-33">
          <mxGeometry relative="1" as="geometry" />
        </mxCell>
        <mxCell id="nDkgFtB3wj2_NNXLFKPz-47" style="edgeStyle=orthogonalEdgeStyle;rounded=0;orthogonalLoop=1;jettySize=auto;html=1;exitX=1;exitY=0.5;exitDx=0;exitDy=0;entryX=0;entryY=0.5;entryDx=0;entryDy=0;" edge="1" parent="1" source="nDkgFtB3wj2_NNXLFKPz-37" target="nDkgFtB3wj2_NNXLFKPz-46">
          <mxGeometry relative="1" as="geometry" />
        </mxCell>
        <mxCell id="nDkgFtB3wj2_NNXLFKPz-37" value="" style="rounded=0;whiteSpace=wrap;html=1;" vertex="1" parent="1">
          <mxGeometry x="560" y="300" width="190" height="120" as="geometry" />
        </mxCell>
        <mxCell id="nDkgFtB3wj2_NNXLFKPz-38" value="&lt;h1&gt;&lt;span style=&quot;font-size: 12px;&quot;&gt;Skills&lt;/span&gt;&lt;/h1&gt;&lt;div&gt;To upgrade my skills&lt;/div&gt;&lt;div&gt;&lt;ul&gt;&lt;li&gt;Personal project&lt;/li&gt;&lt;li&gt;Goals&lt;/li&gt;&lt;/ul&gt;&lt;/div&gt;&lt;p&gt;&lt;/p&gt;" style="text;html=1;strokeColor=none;fillColor=none;spacing=5;spacingTop=-20;whiteSpace=wrap;overflow=hidden;rounded=0;" vertex="1" parent="1">
          <mxGeometry x="560" y="300" width="190" height="120" as="geometry" />
        </mxCell>
        <mxCell id="nDkgFtB3wj2_NNXLFKPz-45" value="" style="rounded=0;whiteSpace=wrap;html=1;" vertex="1" parent="1">
          <mxGeometry x="850" y="220" width="190" height="100" as="geometry" />
        </mxCell>
        <mxCell id="nDkgFtB3wj2_NNXLFKPz-51" style="edgeStyle=orthogonalEdgeStyle;rounded=0;orthogonalLoop=1;jettySize=auto;html=1;exitX=1;exitY=0.5;exitDx=0;exitDy=0;entryX=1;entryY=0.5;entryDx=0;entryDy=0;" edge="1" parent="1" source="nDkgFtB3wj2_NNXLFKPz-46" target="nDkgFtB3wj2_NNXLFKPz-33">
          <mxGeometry relative="1" as="geometry" />
        </mxCell>
        <mxCell id="nDkgFtB3wj2_NNXLFKPz-53" style="edgeStyle=orthogonalEdgeStyle;rounded=0;orthogonalLoop=1;jettySize=auto;html=1;exitX=1;exitY=0.5;exitDx=0;exitDy=0;entryX=0.5;entryY=1;entryDx=0;entryDy=0;" edge="1" parent="1" source="nDkgFtB3wj2_NNXLFKPz-46" target="nDkgFtB3wj2_NNXLFKPz-17">
          <mxGeometry relative="1" as="geometry" />
        </mxCell>
        <mxCell id="nDkgFtB3wj2_NNXLFKPz-46" value="&lt;h1&gt;&lt;span style=&quot;font-size: 12px;&quot;&gt;Projects&lt;/span&gt;&lt;/h1&gt;&lt;div&gt;&lt;span style=&quot;font-size: 12px;&quot;&gt;All my personal projects to level up my skills&lt;/span&gt;&lt;/div&gt;&lt;p&gt;&lt;/p&gt;" style="text;html=1;strokeColor=none;fillColor=none;spacing=5;spacingTop=-20;whiteSpace=wrap;overflow=hidden;rounded=0;" vertex="1" parent="1">
          <mxGeometry x="850" y="220" width="190" height="90" as="geometry" />
        </mxCell>
        <mxCell id="nDkgFtB3wj2_NNXLFKPz-48" value="" style="rounded=0;whiteSpace=wrap;html=1;" vertex="1" parent="1">
          <mxGeometry x="850" y="380" width="190" height="100" as="geometry" />
        </mxCell>
        <mxCell id="nDkgFtB3wj2_NNXLFKPz-52" style="edgeStyle=orthogonalEdgeStyle;rounded=0;orthogonalLoop=1;jettySize=auto;html=1;exitX=1;exitY=0.5;exitDx=0;exitDy=0;entryX=1;entryY=0.5;entryDx=0;entryDy=0;" edge="1" parent="1" source="nDkgFtB3wj2_NNXLFKPz-49" target="nDkgFtB3wj2_NNXLFKPz-33">
          <mxGeometry relative="1" as="geometry" />
        </mxCell>
        <mxCell id="nDkgFtB3wj2_NNXLFKPz-54" style="edgeStyle=orthogonalEdgeStyle;rounded=0;orthogonalLoop=1;jettySize=auto;html=1;exitX=1;exitY=0.5;exitDx=0;exitDy=0;entryX=0.25;entryY=1;entryDx=0;entryDy=0;" edge="1" parent="1" source="nDkgFtB3wj2_NNXLFKPz-49" target="nDkgFtB3wj2_NNXLFKPz-17">
          <mxGeometry relative="1" as="geometry" />
        </mxCell>
        <mxCell id="nDkgFtB3wj2_NNXLFKPz-55" style="edgeStyle=orthogonalEdgeStyle;rounded=0;orthogonalLoop=1;jettySize=auto;html=1;exitX=0.5;exitY=0;exitDx=0;exitDy=0;entryX=0.5;entryY=1;entryDx=0;entryDy=0;" edge="1" parent="1" source="nDkgFtB3wj2_NNXLFKPz-49" target="nDkgFtB3wj2_NNXLFKPz-45">
          <mxGeometry relative="1" as="geometry" />
        </mxCell>
        <mxCell id="nDkgFtB3wj2_NNXLFKPz-49" value="&lt;h1&gt;&lt;span style=&quot;font-size: 12px;&quot;&gt;Goals&lt;/span&gt;&lt;/h1&gt;&lt;div&gt;&lt;span style=&quot;font-size: 12px;&quot;&gt;Goals that I want to achieve like I want to master design pattern...&lt;/span&gt;&lt;/div&gt;&lt;p&gt;&lt;/p&gt;" style="text;html=1;strokeColor=none;fillColor=none;spacing=5;spacingTop=-20;whiteSpace=wrap;overflow=hidden;rounded=0;" vertex="1" parent="1">
          <mxGeometry x="850" y="380" width="190" height="100" as="geometry" />
        </mxCell>
        <mxCell id="nDkgFtB3wj2_NNXLFKPz-50" style="edgeStyle=orthogonalEdgeStyle;rounded=0;orthogonalLoop=1;jettySize=auto;html=1;exitX=1;exitY=0.5;exitDx=0;exitDy=0;entryX=0.005;entryY=0.58;entryDx=0;entryDy=0;entryPerimeter=0;" edge="1" parent="1" source="nDkgFtB3wj2_NNXLFKPz-38" target="nDkgFtB3wj2_NNXLFKPz-49">
          <mxGeometry relative="1" as="geometry" />
        </mxCell>
      </root>
    </mxGraphModel>
  </diagram>
</mxfile>
